<svg width="520" height="320" xmlns="http://www.w3.org/2000/svg">
 <!-- Created with Method Draw - http://github.com/duopixel/Method-Draw/ -->
 <g>
  <title>background</title>
  <rect fill="#fff" id="canvas_background" height="322" width="522" y="-1" x="-1"/>
  <g display="none" overflow="visible" y="0" x="0" height="100%" width="100%" id="canvasGrid">
   <rect fill="url(#gridpattern)" stroke-width="0" y="0" x="0" height="100%" width="100%"/>
  </g>
 </g>
 <g>
  <title>Layer 1</title>
  <path d="m223.5,52.5c0,0 -1,0 -2,0c-1,0 -3,0 -4,0c-1,0 -2,0 -5,0c-1,0 -2.152237,-0.765366 -4,0c-1.306564,0.541195 -3.95517,1.549156 -5,5c-0.28978,0.957092 -0.770248,2.026752 -1,3c-0.513748,2.17625 -1.076126,2.617317 -2,3c-1.306564,0.541199 -1.689255,2.080254 -1,5c0.513748,2.176254 0.292892,3.292892 1,4c0.707108,0.707108 2.026749,0.770248 3,1c2.176254,0.513741 5.228363,-0.148048 8,1c1.306564,0.541199 2,1 4,1c1,0 3.152237,-0.765366 5,0c1.306564,0.541199 2.292892,0.292892 3,1c0.707108,0.707108 0.292892,2.292892 1,3c0.707108,0.707108 1.458801,1.693436 2,3c0.765366,1.847755 0,4 0,5c0,1 0.707108,3.292892 0,4c-0.707108,0.707108 -0.292892,1.292892 -1,2c-0.707108,0.707108 -0.878555,1.493462 -4,2c-4.93544,0.800911 -7,0 -14,0c-5,0 -9.374268,1.72583 -27,-3c-16.505035,-4.425346 -42.621292,-16.256851 -54,-19c-7.837715,-1.889496 -15,-3 -17,-3l-1,0" id="svg_1" stroke-width="1.5" stroke="#000" fill="none"/>
  <path d="m244.5,68.5c0,0 0,1 0,3c0,4 -0.733093,6.044952 0,12c0.503769,4.092216 1,6 1,8c0,3 0,4 0,7c0,2 0,3 0,4c0,1 0,2 0,3c0,3 -1,4 -1,5c0,1 0,2 0,1c0,-2 0,-3 0,-6c0,-1 0,-2 0,-3c0,-1 0.493454,-1.878555 1,-5c0.320358,-1.974174 0,-3 0,-4c0,-1 0,-2 0,-3c0,-2 0,-3 0,-4c0,-1 -1,-1 -1,-2c0,-1 0.38269,-3.076118 0,-4c-0.541199,-1.306564 -1,-2 -1,-3c0,-1 1,-3 1,-4c0,-1 -0.38269,-2.076118 0,-3c0.541199,-1.306564 0.292892,-2.292892 1,-3c0.707108,-0.707108 3.878555,-0.493462 7,-1c1.974182,-0.320366 4,-1 5,-1c1,0 1.878571,0.493462 5,1c0.987091,0.160179 2.823761,0.486259 5,1c0.973236,0.229752 3,2 4,3c1,1 2.173096,2.85273 3,4c1.307465,1.813995 2,4 2,5c0,1 0.38269,2.076118 0,3c-0.541199,1.306564 -1,2 -2,3c-1,1 -3.076111,1.617317 -4,2c-1.306549,0.541199 -2.076111,0.617317 -3,1c-1.306549,0.541199 -2,1 -3,1c-1,0 -3.076111,-0.382683 -4,0c-1.306549,0.541199 -2,1 -3,1c-1,0 -3,0 -4,0c-1,0 -2,0 -3,0c-1,0 -2,0 -3,0l-1,-1l-1,-1l-1,0" id="svg_3" stroke-width="1.5" stroke="#000" fill="none"/>
  <path d="m298.5,104.5c0,0 0.66803,-2.229362 -1,-6c-1.458649,-3.297325 -3,-4 -4,-5c-1,-1 -1,-2 -1,-4c0,-2 0,-3 0,-4c0,-1 0,-2 0,-3c0,-1 0,-2 0,-4c0,-1 0.292908,-3.292892 1,-4c0.707092,-0.707108 2,-1 3,-2c1,-1 1.693451,-2.458801 3,-3c0.923889,-0.382683 3.026764,-0.770248 4,-1c2.176239,-0.513741 3,-2 5,-2c2,0 4,0 5,0c1,0 2,0 3,0c1,0 2.823761,0.486259 5,1c0.973236,0.229752 1.934143,1.144295 4,2c2.92157,1.210152 5,3 7,7c1,2 2.486267,2.823746 3,5c0.459503,1.946495 1,3 1,5c0,1 0.458801,1.693436 1,3c0.38269,0.923882 0,2 0,3c0,1 0,2 0,3l0,1" id="svg_4" stroke-width="1.5" stroke="#000" fill="none"/>
  <path d="m294.5,80.5c0,0 0,1 1,1c4,0 7.041321,-0.152771 11,1c3.036163,0.884132 4.076111,0.617317 5,1c1.306549,0.541199 1,1 2,1c1,0 2,0 3,0c1,0 2,0 3,0c1,0 2,0 5,0c1,0 2,0 3,0c1,0 1.076111,-0.617317 2,-1c1.306549,-0.541199 2,-1 3,-1l1,0l1,0" id="svg_5" stroke-width="1.5" stroke="#000" fill="none"/>
  <path d="m377.5,68.5c0,0 -1,0 -2,0c-2,0 -3,0 -5,0c-1,0 -2,0 -3,0c-1,0 -2.19577,0.648857 -6,3c-4.253265,2.628654 -4.693451,4.458801 -6,5c-0.923889,0.382683 -0.292908,1.292892 -1,2c-0.707092,0.707108 -2.496216,0.907784 -3,5c-0.122192,0.992508 -0.229767,2.026749 0,3c0.513733,2.176254 1.458801,2.693436 2,4c0.38269,0.923882 0,2 1,2c1,0 2.906342,1.103401 4,2c5.57666,4.571762 7.186005,4.692551 9,6c1.147278,0.826904 2,1 3,1c3,0 5,1 6,1c1,0 3,0 4,0c1,0 3.925781,-0.497551 9,-1c0.995148,-0.098541 2,-1 3,-1l1,0" id="svg_6" stroke-width="1.5" stroke="#000" fill="none"/>
  <path d="m408.5,82.5c0,0 -0.292908,0.292892 -1,1c-0.707092,0.707108 1.022491,0.633453 4,1c4.092224,0.503777 6,1 8,1c2,0 3,0 5,0c1,0 1.292908,-0.292892 2,-1c0.707092,-0.707108 0.173096,-1.85273 1,-3c1.307465,-1.813995 1,-3 1,-4c0,-1 1.011627,-4.846931 -5,-11c-3.494202,-3.576397 -6,-3 -7,-3c-1,0 -2,0 -3,0c-1,0 -3,1 -5,3c-2,2 -2.693451,3.458801 -4,4c-0.923889,0.382683 -1.292908,0.292892 -2,1c-1.414215,1.414215 -1,3 -1,6c0,1 0,2 0,3c0,1 0,2 0,3c0,1 0,2 0,3c0,3 -0.765381,4.152245 0,6c0.541199,1.306564 1.693451,1.458801 3,2c0.923889,0.382683 1,1 2,1c1,0 2,0 3,0c2,0 4.25058,-0.10836 11,2c2.134369,0.666725 3,1 4,1c1,0 2,0 3,0c1,0 2,0 3,0c1,0 2,0 3,0l1,0l1,0l1,-1" id="svg_7" stroke-width="1.5" stroke="#000" fill="none"/>
  <path d="m230.5,126.5c0,0 -1.742523,-0.352882 -3,-1c-5.4086,-2.783363 -12.080246,-2.310738 -15,-3c-2.176254,-0.513741 -4.038742,-1.480545 -7,-1c-6.242889,1.013084 -9.088303,2.752373 -15,5c-7.118622,2.706497 -9.292892,2.292892 -10,3c-0.707108,0.707108 -1.486252,1.823746 -2,4c-0.919006,3.89299 -2.61731,9.076126 -3,10c-0.541199,1.306564 -1.292892,1.292892 -2,2c-1.414215,1.414215 4.016846,8.606491 13,13c10.242371,5.009384 14,3 15,3c1,0 1.823746,0.486252 4,1c1.946503,0.459503 5.053497,-0.459503 7,0c2.176254,0.513748 4,2 6,3c4,2 5.292892,1.292892 6,2c0.707108,0.707108 1.148056,2.228363 0,5c-1.623581,3.919693 -4.390991,5.769516 -8,8c-2.689987,1.662506 -6,2 -11,2c-3,0 -11,0 -13,0c-7,0 -11,0 -13,0c-3,0 -9.010223,0.247437 -12,0c-6.062042,-0.501709 -10,-2 -11,-2l-1,0l-1,0" id="svg_8" stroke-width="1.5" stroke="#000" fill="none"/>
  <path d="m242.5,146.5c0,0 0,1 0,5c0,4 -0.320358,8.025818 0,10c0.506546,3.121445 1,6 1,7c0,1 0,2 0,3c0,1 0,2 0,3c0,1 0,2 0,3c0,1 0,2 0,4c0,1 0,3 0,4l0,1l0,1l0,-1" id="svg_9" stroke-width="1.5" stroke="#000" fill="none"/>
  <path d="m241.5,154.5c0,0 -0.38269,-1.076126 0,-2c0.541199,-1.306564 2.152237,-1.234634 4,-2c2.613129,-1.082397 2,-3 3,-3c1,0 3,0 5,0c1,0 2,0 3,0c1,0 3,-1 4,-1c1,0 3.823761,0.486252 6,1c0.973236,0.229752 2.076111,0.61731 3,1c1.306549,0.541199 1.823761,2.486252 4,3c0.973236,0.229752 1.458801,0.693436 2,2c0.38269,0.923874 1,1 1,2c0,2 0,3 0,4c0,1 0,2 0,3c0,2 0,3 0,4c0,1 0,3 0,6c0,2 0,3 0,4c0,1 0,2 0,5c0,1 0,2 0,3c0,1 0,2 0,3l0,1l0,1" id="svg_10" stroke-width="1.5" stroke="#000" fill="none"/>
  <path d="m300.5,167.5c0,0 1,0 3,0c5,0 6,0 7,0c1,0 2,0 3,0c1,0 1.292908,-1.292892 2,-2c0.707092,-0.707108 0.839813,-1.012909 1,-2c0.506531,-3.121445 1,-8 1,-12c0,-2 0,-4 0,-5c0,-1 0.38269,-2.076126 0,-3c-0.541199,-1.306564 -2,-2 -3,-2c-1,0 -2.152252,-0.765366 -4,0c-1.306549,0.541199 -2.076111,0.61731 -3,1c-1.306549,0.541199 -3.852722,2.173096 -5,3c-1.813995,1.307449 -4,2 -6,3c-2,1 -3.292908,0.292892 -4,1c-0.707092,0.707108 0,2 -2,4c-3,3 -3.486267,3.823746 -4,6c-0.459503,1.946503 0,3 0,4c0,3 0.078583,9.380234 5,20c3.389893,7.314957 12.261108,12.049088 16,22c0.351715,0.936096 1,1 2,0c1,-1 1.823761,-1.486252 4,-2c1.946503,-0.459503 4.053497,-0.540497 6,-1c2.176239,-0.513748 4.053497,-0.540497 6,-1c2.176239,-0.513748 5.549164,-3.95517 9,-5c0.957092,-0.28978 3.206818,-1.812653 5,-4c2.285889,-2.78833 3,-3 3,-4l1,0" id="svg_11" stroke-width="1.5" stroke="#000" fill="none"/>
  <path d="m360.5,133.5c0,0 0,1 0,4c0,4 -1.499481,9.965988 -2,21c-0.181244,3.995895 0,9 0,17c0,5 3,17 4,23l1,2l0,2l0,1" id="svg_12" stroke-width="1.5" stroke="#000" fill="none"/>
  <path d="m357.5,160.5c0,0 1.076111,0.38269 2,0c3.919678,-1.623581 9.42334,-6.428238 15,-11c6.562012,-5.379578 9.186005,-6.692551 11,-8c1.147278,-0.826904 2,-1 4,-2l1,-1l1,0" id="svg_13" stroke-width="1.5" stroke="#000" fill="none"/>
  <path d="m362.5,158.5c0,0 -1.292908,-0.707108 -2,0c-0.707092,0.707108 -1.081268,2.345078 1,7c2.040863,4.564529 4,5 4,6c0,1 1,1 1,2c0,1 0.693451,1.458801 2,2c0.923889,0.38269 1.026764,0.770248 2,1c2.176239,0.513748 3.186005,0.692551 5,2c3.441803,2.480713 6.412079,2.968552 10,5c1.230652,0.696777 1,2 3,4c1,1 1.346191,1.70546 3,4c1.307465,1.813995 2,3 2,5l2,1l0,1l0,1" id="svg_14" stroke-width="1.5" stroke="#000" fill="none"/>
  <ellipse ry="26.5" rx="32" id="svg_15" cy="251" cx="436.5" stroke-width="1.5" stroke="#000" fill="#fff"/>
  <ellipse ry="8" rx="5.5" id="svg_20" cy="235.5" cx="436" stroke-width="1.5" stroke="#000" fill="#fff"/>
  <ellipse ry="6" rx="6" id="svg_21" cy="257.5" cx="451.5" stroke-width="1.5" stroke="#000" fill="#fff"/>
  <path d="m459.5,231.5c0,0 1.132019,0.24469 5,-2c3.118469,-1.809723 12.079712,-8.847961 16,-11c5.11145,-2.805908 9,-4 11,-5l1,0l1,0" id="svg_22" stroke-width="1.5" stroke="#000" fill="none"/>
  <path d="m477.5,219.5c0,0 0,-1 0,-2c0,-1 0,-9 0,-13c0,-2 1,-4 1,-5l1,0" id="svg_23" stroke-width="1.5" stroke="#000" fill="none"/>
  <path d="m406.5,239.5c0,0 -0.978973,-0.065414 -4,-1c-6.954895,-2.151596 -11.091156,-3.795685 -18,-7c-2.028503,-0.940826 -4.076111,-0.61731 -5,-1c-1.306549,-0.541199 -4,-1 -7,-1c-1,0 -3,0 -5,0c-1,0 -3,-1 -5,-1c-2,0 -7,0 -10,0c-4,0 -11.064575,-0.800919 -16,0c-6.242889,1.013077 -11,2 -16,3c-5,1 -9.823761,2.486252 -12,3c-4.866241,1.148758 -8.693451,1.458801 -10,2c-0.923889,0.38269 -7.543457,-4.649429 -13,-8c-10.296783,-6.322708 -16.071808,-6.691238 -21,-8c-3.056335,-0.811661 -14.963837,-5.11586 -18,-6c-3.958679,-1.152771 -10.907791,-3.496231 -15,-4c-2.977524,-0.366547 -10,0 -14,0c-5,0 -11,0 -14,0c-4,0 -8.076126,0.38269 -9,0c-1.306564,-0.541199 -3.080246,-1.310745 -6,-2c-2.176254,-0.513748 -4.03067,-0.912308 -7,-2c-5.056595,-1.852264 -12.132996,-4.569504 -16,-6c-2.097168,-0.775803 -6.160507,-1.621475 -12,-3c-2.176254,-0.513748 -7,-2 -10,-3c-3,-1 -7,-2 -9,-2c-2,0 -4,0 -5,-1c-3,-3 -6.950089,-4.044617 -15,-13c-11.501457,-12.795166 -14.371346,-19.74675 -17,-24c-3.526711,-5.706345 -3.847229,-9.041321 -5,-13c-0.884132,-3.036163 -3.990242,-7.790253 -5,-15c-0.416107,-2.971001 -1.144295,-3.934143 -2,-6c-1.210152,-2.921562 -4.408943,-8.77636 -7,-14c-2.392967,-4.82428 -3.497551,-7.925797 -4,-13c-0.591225,-5.970802 -1.60096,-7.832123 -3,-14c-1.783432,-7.862526 -2.533737,-16.096603 -4,-22c-0.762276,-3.069031 -2,-5 -3,-6c-1,-1 -1.303219,-1.769352 -2,-3c-2.031448,-3.587925 -1,-7 -2,-11c-1,-4 -1.292892,-4.292892 -2,-5c-1.414215,-1.414213 -0.292892,-3.292892 -1,-4c-0.707108,-0.707108 -0.292892,-1.292892 -1,-2c-0.707108,-0.707108 -1.292892,-0.292892 -2,-1c-0.707108,-0.707108 -0.693436,-1.458803 -2,-2c-1.847759,-0.765368 -3,-1 -4,-1c-1,0 -2,0 -3,0c-1,0 -2,0 -3,0c-1,0 -2,1 -4,3c-1,1 -2,2 -2,3c0,1 0,2 0,3c0,2 0,4 0,6c0,1 -0.295612,7.014599 0,10c0.502445,5.074203 2,10 2,13c0,1 1.173096,2.85273 2,4c1.307453,1.813995 0.692547,3.186005 2,5c0.826904,1.14727 2.486256,1.823746 3,4c0.229752,0.973251 0.149349,1.474266 1,2c1.902115,1.175568 2.040329,6.647339 5,10c2.386162,2.703003 3.076122,3.617317 4,4c1.306564,0.541199 1,2 1,3c0,1 -0.382683,3.076118 0,4c0.541195,1.306564 0.234634,4.152245 1,6c0.541195,1.306564 1.173096,2.85273 2,4c1.307453,1.813995 2,4 3,6c1,2 2,3 3,4c1,1 1.474266,3.149345 2,4c1.175568,1.902115 3,3 4,5c1,2 0.88134,4.025208 2,9c0.904556,4.022659 1.499031,6.953323 2,15c0.186409,2.994202 0.292892,3.292892 1,4c0.707108,0.707108 2.940041,3.375351 6,9c1.511208,2.777817 3.714119,6.21167 6,9c1.79319,2.187347 3,4 3,6c0,1 5.73909,10.238876 14,19c1.940392,2.057892 5.371346,6.74675 8,11c1.175568,1.902115 4.458801,5.693436 5,7c0.382683,0.923874 0.81266,2.206802 3,4c2.788322,2.285873 9.310013,6.337494 12,8c1.203003,0.7435 2.19075,1.42215 6,3c5.3871,2.231415 9.310013,4.337494 12,6c1.203003,0.7435 3,1 5,1c3,0 4.822693,0.643234 11,2c8.844559,1.942596 12.014603,1.704391 15,2c10.148407,1.004898 11.823746,2.486252 14,3c1.946503,0.459503 7.292892,1.292892 8,2c0.707108,0.707108 0.474274,1.149353 1,2c2.351135,3.80423 9,4 15,6c6,2 16.907791,4.496216 21,5c2.977524,0.366547 4,0 5,0c1,0 3,0 11,0c4,0 6,0 9,0c5,0 10,0 12,0c3,0 5,0 7,0c2,0 3,0 4,0c1,0 3.080261,0.31073 6,1c2.176239,0.513733 5.937958,2.498291 12,3c1.993195,0.164948 2.823761,0.486267 5,1c0.973236,0.229767 3,0 5,0c1,0 2,0 6,0c4,0 9,0 15,0c4,0 8.823761,1.486267 11,2c6.812744,1.608276 14,1 15,1c1,0 2,0 4,0c3,0 5,0 7,0c1,0 3,0 4,0c1,0 2,0 3,0c1,0 2,0 3,0c1,0 2,0 3,0c1,0 2,0 3,0c1,0 2,0 3,0c1,0 1.292908,-0.292908 2,-1c0.707092,-0.707092 1.693451,-0.458801 3,-1c0.923889,-0.38269 2.292908,0.707092 3,0c0.707092,-0.707092 1.292908,-0.292908 2,-1c0.707092,-0.707092 1,-1 1,-2l1,0" id="svg_25" stroke-width="1.5" stroke="#000" fill="none"/>
 </g>
</svg>